<svg xmlns="http://www.w3.org/2000/svg" viewBox="0 0 640 500"><rect width="640" height="500" fill="#f4ce43"/><g stroke="#d6b331" stroke-width="1"><path d="M0 60h640M0 120h640M0 180h640M0 240h640M0 300h640M0 360h640M0 420h640M0 480h640M60 0v500M120 0v500M180 0v500M240 0v500M300 0v500M360 0v500M420 0v500M480 0v500M540 0v500M600 0v500"/></g><g fill="#fffdf1" stroke="#182329" stroke-width="3"><path d="M62 96 431 36 591 170 587 370 210 459 53 323Z"/><path d="m62 96 148 119 381-45M210 215v244M431 36v93" fill="none"/></g><path d="m61 325 148 111 1-203L62 116Z" fill="#1744dc"/><path d="m230 433 341-81V191l-341 77Z" fill="#e7ecf2"/><path d="m246 402 64-16 0-58 156-36 0-51 79-18" fill="none" stroke="#1644dc" stroke-width="7" stroke-dasharray="13 9"/><g stroke="#182329" stroke-width="3" stroke-linejoin="round"><path d="m282 151 83-17 39 30-85 20Z" fill="#1644dc"/><path d="m282 151 0 36 37 31v-34m0 34 85-22v-32" fill="#1644dc"/><path d="m294 159 0-30 60-14 0 21m-47 38 0-25 75-17 13 9v35" fill="#7ea7f9"/><path d="m304 218 0 11m88-34v11"/><path d="m448 174 40-9 22 17-40 10Z" fill="#f4ce43"/><path d="M470 192v43m-23-60v31m61-22v29" fill="none"/><path d="m365 314 154-37v-69l-154 37Z" fill="#fffdf1"/><path d="m365 279 154-37m-103-9v69m51-80v69" fill="none"/><path d="m379 251 25-6v22l-25 6Zm51-12 24-6v23l-24 6Zm52-12 24-6v23l-24 6Z" fill="#d99e62"/><path d="m366 324 0 11m152-55v12"/><path d="m123 289 38 31v-60l-38-30Z" fill="#fffdf1"/><path d="m134 243 0 28 16 13" fill="none"/></g><g font-family="Arial,sans-serif" font-weight="bold" fill="#182329"><text x="77" y="63" font-size="16" letter-spacing="3">IL PERCORSO FACILE*</text><text x="375" y="418" font-size="12">* IN TEORIA.</text><text x="248" y="79" font-size="13">01 / SHOWROOM</text><text x="441" y="129" font-size="12">02 / PAUSA</text><text x="290" y="367" font-size="12" transform="rotate(-13 290 367)">03 / MAGAZZINO</text></g><g fill="#1644dc"><circle cx="253" cy="401" r="15"/><path d="m558 331 29 5-24 23Z"/></g><circle cx="253" cy="401" r="5" fill="#fff"/></svg>